<svg version="1.1" xmlns="http://www.w3.org/2000/svg" viewBox="0 0 2048 2048" width="1024" height="1024" preserveAspectRatio="none">
  <path fill="black" d="M 1023.5 691.586 C 1028.59 695.349 1069.29 751.662 1076.29 760.73 C 1142.24 846.174 1205.82 935.667 1272.4 1020.5 C 1253.17 1048.62 1232.18 1077.54 1212.53 1105.54 L 1104.46 1259.56 C 1077.5 1297.71 1051.77 1336.56 1024.43 1374.47 C 1018.78 1370.34 980.57 1313.2 973.319 1302.89 L 775.628 1020.54 C 800.815 988.153 825.892 953.553 850.723 920.72 L 1023.5 691.586 z M 872.788 1021.56 C 899.449 1055.42 931.736 1105.02 957.211 1141.57 L 1002.39 1206.28 C 1008.65 1215.17 1018.86 1228.3 1024.15 1236.74 C 1062.14 1184.43 1098.21 1128.44 1136.26 1075.95 C 1148.44 1059.16 1162.11 1038.13 1174.62 1022.09 C 1136.76 973.057 1100.09 922.448 1062.3 873.312 C 1057.23 866.717 1027.46 826.214 1023.69 823.556 C 990.898 866.009 958.465 908.737 926.392 951.736 C 911.135 972.047 888.992 1003.1 872.788 1021.56 z"/>
  <path fill="black" d="M 1022.83 885.504 C 1027.55 887.659 1116.97 1008.18 1128.13 1022.02 C 1114.5 1044.68 1094.35 1071.93 1078.84 1094.23 C 1061.83 1118.69 1043.4 1147.12 1025.76 1170.7 L 1024.23 1171.07 C 1019.53 1169.42 928.556 1036.01 920.922 1021.85 C 924.699 1016.14 929.284 1010.02 933.477 1004.53 C 963.535 965.176 992.531 924.635 1022.83 885.504 z"/>
  <path fill="black" d="M 1499.9 603.013 C 1526.43 602.969 1552.3 603.346 1578.86 602.719 C 1577.52 622.626 1578.63 664.235 1578.77 685.338 L 1579.01 824.033 L 1578.82 1286.92 C 1535.81 1285.24 1493.27 1291.93 1450.97 1294.14 C 1451.99 1356.34 1450.58 1418.85 1451.23 1481.06 C 1451.38 1494.69 1450.28 1510.98 1452.26 1524.27 C 1428.15 1501.79 1396.65 1467.08 1373.24 1442.59 L 1265.65 1331.07 L 1250.44 1335.96 C 1206.31 1349.55 1161.64 1366.17 1117.69 1380.47 C 1097.07 1387.18 1071.11 1397.19 1050.4 1402.36 C 1055.55 1396.27 1060.76 1387.76 1065.52 1381 C 1081.6 1358.17 1097.64 1332.85 1114.85 1311.06 C 1122.16 1301.81 1149.38 1288.12 1160.91 1282.49 C 1264.56 1231.9 1385.58 1209.21 1499.88 1202.22 C 1498.97 1161.49 1499.62 1118.53 1499.63 1077.6 L 1499.62 855.574 L 1499.53 697.354 C 1499.47 667.609 1498.62 632.352 1499.9 603.013 z"/>
  <path fill="black" d="M 469.112 603.025 C 495.779 603.507 522.222 602.173 548.851 603.888 C 547.824 631.094 548.48 663.015 548.46 690.508 L 548.364 849.791 L 548.343 1070.98 C 548.154 1114.64 548.33 1158.3 548.871 1201.96 C 577.896 1202.47 616.465 1207.9 645.469 1212.08 C 730.641 1224.57 815.479 1246.22 892.746 1284.85 C 927.614 1302.28 931.202 1305.6 952.532 1337.49 C 966.468 1358.33 983.181 1382.75 998.204 1402.8 C 980.519 1397.74 962.262 1390.93 944.814 1384.93 C 915.872 1374.94 886.845 1365.19 857.735 1355.7 C 833.401 1347.02 807.308 1339.81 783.01 1331.22 C 746.129 1370.77 706.264 1410.25 668.474 1449.12 C 645.275 1472.99 620.67 1499.75 596.903 1522.54 C 597.587 1495.61 596.978 1466.23 596.932 1439.05 L 596.993 1294.19 C 553.467 1289.92 512.9 1286.9 468.997 1287 L 469.112 603.025 z"/>
  <path fill="black" d="M 1474.34 525.5 C 1482.76 525.13 1491.18 524.839 1499.6 524.626 C 1498.38 549.942 1500.14 577.242 1499.1 602.837 C 1386.6 605.32 1254.32 629.412 1156.6 687.235 C 1135.77 699.565 1117.71 713.759 1098.66 728.584 L 1091.19 718.718 C 1078.66 702.302 1062.69 682.323 1051.77 665.344 C 1146.16 584.635 1271.8 548.321 1392.89 532.478 C 1420.71 528.838 1446.67 527.593 1474.34 525.5 z"/>
  <path fill="black" d="M 549.244 524.932 C 596.565 525.582 643.763 529.911 690.412 537.879 C 803.811 556.624 907.07 591.652 997.001 665.149 C 989.501 676.53 977.535 691.283 969.054 703.021 C 963.752 709.104 954.742 721.724 949.627 728.5 C 930.719 713.723 911.488 698.837 890.7 686.78 C 788.757 627.653 665.334 605.929 549.007 602.879 C 548.919 576.896 548.999 550.913 549.244 524.932 z"/>
</svg>
